<?xml version="1.0" encoding="UTF-8" standalone="no"?>
<!-- Generator: Adobe Illustrator 16.0.0, SVG Export Plug-In . SVG Version: 6.00 Build 0)  -->

<svg
   xmlns:dc="http://purl.org/dc/elements/1.1/"
   xmlns:cc="http://creativecommons.org/ns#"
   xmlns:rdf="http://www.w3.org/1999/02/22-rdf-syntax-ns#"
   xmlns:svg="http://www.w3.org/2000/svg"
   xmlns="http://www.w3.org/2000/svg"
   xmlns:sodipodi="http://sodipodi.sourceforge.net/DTD/sodipodi-0.dtd"
   xmlns:inkscape="http://www.inkscape.org/namespaces/inkscape"
   version="1.1"
   id="Capa_1"
   x="0px"
   y="0px"
   width="198.685px"
   height="198.685px"
   viewBox="0 0 198.685 198.685"
   style="enable-background:new 0 0 198.685 198.685;"
   xml:space="preserve"
   sodipodi:docname="random-shape-outline-svgrepo-com.svg"
   inkscape:version="0.92.5 (2060ec1f9f, 2020-04-08)"><metadata
   id="metadata41"><rdf:RDF><cc:Work
       rdf:about=""><dc:format>image/svg+xml</dc:format><dc:type
         rdf:resource="http://purl.org/dc/dcmitype/StillImage" /></cc:Work></rdf:RDF></metadata><defs
   id="defs39" /><sodipodi:namedview
   pagecolor="#ffffff"
   bordercolor="#666666"
   borderopacity="1"
   objecttolerance="10"
   gridtolerance="10"
   guidetolerance="10"
   inkscape:pageopacity="0"
   inkscape:pageshadow="2"
   inkscape:window-width="781"
   inkscape:window-height="480"
   id="namedview37"
   showgrid="false"
   inkscape:zoom="1.1878099"
   inkscape:cx="130.32495"
   inkscape:cy="99.342499"
   inkscape:window-x="0"
   inkscape:window-y="0"
   inkscape:window-maximized="0"
   inkscape:current-layer="Capa_1" />
<g
   id="g4"
   style="fill:#6a5ae0;fill-opacity:1">
	<path
   d="M196.785,75.856L141.647,20.78c-2.521-2.524-6.619-2.524-9.146,0L99.31,53.966L66.142,20.78   c-2.515-2.524-6.619-2.524-9.14,0L1.895,75.856c-2.527,2.521-2.527,6.604,0,9.143l37.107,37.123   c0.177,0.25,0.377,0.486,0.597,0.706l55.107,55.076c0.975,0.95,2.156,1.547,3.374,1.767c0.414,0.078,0.865,0.127,1.26,0.127   c1.65,0,3.301-0.633,4.567-1.894l92.878-92.905c1.199-1.211,1.899-2.868,1.899-4.573C198.685,78.706,197.984,77.071,196.785,75.856   z M99.31,164.253l-49.907-49.877c-0.195-0.256-0.384-0.486-0.603-0.712L15.602,80.426L61.563,34.48L90.2,63.087L70.715,82.536   c-2.521,2.524-2.521,6.622,0,9.146c2.515,2.521,6.625,2.521,9.146,0l57.213-57.202l46.01,45.946L99.31,164.253z M135.82,45.895   l32.321,32.251c0.639,0.597,0.938,1.434,0.938,2.287c0,0.855-0.316,1.671-0.938,2.289l-27.365,27.368   c-0.646,0.64-1.449,0.943-2.277,0.943c-0.815,0-1.632-0.316-2.259-0.943c-1.267-1.261-1.267-3.312,0-4.562l25.075-25.09   l-30.014-29.965c-1.267-1.267-1.267-3.312,0-4.57C132.538,44.638,134.548,44.638,135.82,45.895z"
   id="path2"
   style="fill:#6a5ae0;fill-opacity:1" />
</g>
<g
   id="g6">
</g>
<g
   id="g8">
</g>
<g
   id="g10">
</g>
<g
   id="g12">
</g>
<g
   id="g14">
</g>
<g
   id="g16">
</g>
<g
   id="g18">
</g>
<g
   id="g20">
</g>
<g
   id="g22">
</g>
<g
   id="g24">
</g>
<g
   id="g26">
</g>
<g
   id="g28">
</g>
<g
   id="g30">
</g>
<g
   id="g32">
</g>
<g
   id="g34">
</g>
</svg>