<?xml version="1.0" encoding="UTF-8" standalone="no"?>
<!-- Created with Inkscape (http://www.inkscape.org/) -->

<svg
   xmlns:dc="http://purl.org/dc/elements/1.1/"
   xmlns:cc="http://creativecommons.org/ns#"
   xmlns:rdf="http://www.w3.org/1999/02/22-rdf-syntax-ns#"
   xmlns:svg="http://www.w3.org/2000/svg"
   xmlns="http://www.w3.org/2000/svg"
   xmlns:sodipodi="http://sodipodi.sourceforge.net/DTD/sodipodi-0.dtd"
   xmlns:inkscape="http://www.inkscape.org/namespaces/inkscape"
   width="53.564999mm"
   height="45.928001mm"
   viewBox="0 0 53.564999 45.928001"
   version="1.1"
   id="svg859"
   inkscape:version="0.92.5 (2060ec1f9f, 2020-04-08)"
   sodipodi:docname="favicon.svg">
  <defs
     id="defs853" />
  <sodipodi:namedview
     id="base"
     pagecolor="#ffffff"
     bordercolor="#666666"
     borderopacity="1.0"
     inkscape:pageopacity="0.0"
     inkscape:pageshadow="2"
     inkscape:zoom="1.4"
     inkscape:cx="51.677165"
     inkscape:cy="-37.285372"
     inkscape:document-units="mm"
     inkscape:current-layer="layer1"
     showgrid="false"
     inkscape:window-width="1366"
     inkscape:window-height="703"
     inkscape:window-x="0"
     inkscape:window-y="0"
     inkscape:window-maximized="1" />
  <metadata
     id="metadata856">
    <rdf:RDF>
      <cc:Work
         rdf:about="">
        <dc:format>image/svg+xml</dc:format>
        <dc:type
           rdf:resource="http://purl.org/dc/dcmitype/StillImage" />
        <dc:title />
      </cc:Work>
    </rdf:RDF>
  </metadata>
  <g
     inkscape:label="Camada 1"
     inkscape:groupmode="layer"
     id="layer1"
     transform="translate(0,-251.072)">
    <path
       id="path222"
       style="fill:#fec503;fill-opacity:1;fill-rule:nonzero;stroke:none;stroke-width:0.35277775"
       d="m 26.668414,297.28539 v 0 c -0.84947,0 -1.5381,-0.68862 -1.5381,-1.53811 v -14.66004 c 0,-0.84948 0.68863,-1.53811 1.5381,-1.53811 0.8495,0 1.537761,0.68863 1.537761,1.53811 v 14.66004 c 0,0.84949 -0.688261,1.53811 -1.537761,1.53811"
       inkscape:connector-curvature="0" />
    <path
       id="path226"
       style="fill:#fec503;fill-opacity:1;fill-rule:nonzero;stroke:none;stroke-width:0.35277775"
       d="m 26.650152,251.35746 c -6.644899,0 -12.031819,5.38727 -12.031819,12.03219 0,6.64528 5.38692,12.03219 12.031819,12.03219 6.64528,0 12.032192,-5.38691 12.032192,-12.03219 0,-6.64492 -5.386912,-12.03219 -12.032192,-12.03219 m 0,3.18982 c 4.876112,0 8.842751,3.96663 8.842751,8.84237 0,4.8761 -3.966639,8.84273 -8.842751,8.84273 -4.875739,0 -8.842369,-3.96663 -8.842369,-8.84273 0,-4.87574 3.96663,-8.84237 8.842369,-8.84237"
       inkscape:connector-curvature="0" />
    <path
       id="path230"
       style="fill:#fec503;fill-opacity:1;fill-rule:nonzero;stroke:none;stroke-width:0.35277775"
       d="m 46.074964,272.19357 c -4.08268,0 -7.392461,3.30977 -7.392461,7.39246 0,4.08305 3.309781,7.39282 7.392461,7.39282 4.08305,0 7.392831,-3.30977 7.392831,-7.39282 0,-4.08269 -3.309781,-7.39246 -7.392831,-7.39246 m 0,2.97322 c 2.437,0 4.419258,1.98261 4.419258,4.41924 0,2.43699 -1.982258,4.41925 -4.419258,4.41925 -2.43663,0 -4.418881,-1.98226 -4.418881,-4.41925 0,-2.43663 1.982251,-4.41924 4.418881,-4.41924"
       inkscape:connector-curvature="0" />
    <path
       id="path234"
       style="fill:#fec503;fill-opacity:1;fill-rule:nonzero;stroke:none;stroke-width:0.35277775"
       d="m 7.295254,279.58603 c -4.08305,0 -7.39281,3.30976 -7.39281,7.39282 0,4.08269 3.30976,7.39246 7.39281,7.39246 4.0827,0 7.39245,-3.30977 7.39245,-7.39246 0,-4.08306 -3.30975,-7.39282 -7.39245,-7.39282 m 0,2.97321 c 2.43665,0 4.41891,1.98262 4.41891,4.41961 0,2.43663 -1.98226,4.41924 -4.41891,4.41924 -2.43697,0 -4.41923,-1.98261 -4.41923,-4.41924 0,-2.43699 1.98226,-4.41961 4.41923,-4.41961"
       inkscape:connector-curvature="0" />
  </g>
</svg>
