<?xml version="1.0" encoding="UTF-8" standalone="no"?>
<!-- Created with Inkscape (http://www.inkscape.org/) -->

<svg
   xmlns:dc="http://purl.org/dc/elements/1.1/"
   xmlns:cc="http://creativecommons.org/ns#"
   xmlns:rdf="http://www.w3.org/1999/02/22-rdf-syntax-ns#"
   xmlns:svg="http://www.w3.org/2000/svg"
   xmlns="http://www.w3.org/2000/svg"
   xmlns:sodipodi="http://sodipodi.sourceforge.net/DTD/sodipodi-0.dtd"
   xmlns:inkscape="http://www.inkscape.org/namespaces/inkscape"
   width="730.21899"
   height="237.17799"
   viewBox="0 0 193.20378 62.753346"
   version="1.1"
   id="svg5099"
   inkscape:version="0.92.5 (2060ec1f9f, 2020-04-08)"
   sodipodi:docname="logo.svg">
  <defs
     id="defs5093" />
  <sodipodi:namedview
     id="base"
     pagecolor="#ffffff"
     bordercolor="#666666"
     borderopacity="1.0"
     inkscape:pageopacity="0.0"
     inkscape:pageshadow="2"
     inkscape:zoom="0.98994949"
     inkscape:cx="489.02114"
     inkscape:cy="133.55339"
     inkscape:document-units="px"
     inkscape:current-layer="layer1"
     showgrid="false"
     units="px"
     inkscape:window-width="1366"
     inkscape:window-height="703"
     inkscape:window-x="0"
     inkscape:window-y="0"
     inkscape:window-maximized="1" />
  <metadata
     id="metadata5096">
    <rdf:RDF>
      <cc:Work
         rdf:about="">
        <dc:format>image/svg+xml</dc:format>
        <dc:type
           rdf:resource="http://purl.org/dc/dcmitype/StillImage" />
        <dc:title />
      </cc:Work>
    </rdf:RDF>
  </metadata>
  <g
     inkscape:label="Camada 1"
     inkscape:groupmode="layer"
     id="layer1"
     transform="translate(0,-234.24661)">
    <path
       id="path222"
       style="fill:#fec503;fill-opacity:1;fill-rule:nonzero;stroke:none;stroke-width:0.35277775"
       d="m 26.926028,280.25481 v 0 c -0.84947,0 -1.5381,-0.68862 -1.5381,-1.53811 v -14.66004 c 0,-0.84948 0.68863,-1.53811 1.5381,-1.53811 0.8495,0 1.53776,0.68863 1.53776,1.53811 v 14.66004 c 0,0.84949 -0.68826,1.53811 -1.53776,1.53811"
       inkscape:connector-curvature="0" />
    <path
       id="path226"
       style="fill:#fec503;fill-opacity:1;fill-rule:nonzero;stroke:none;stroke-width:0.35277775"
       d="m 26.907767,234.32688 c -6.6449,0 -12.03182,5.38727 -12.03182,12.03219 0,6.64528 5.38692,12.03219 12.03182,12.03219 6.64528,0 12.03219,-5.38691 12.03219,-12.03219 0,-6.64492 -5.38691,-12.03219 -12.03219,-12.03219 m 0,3.18982 c 4.87611,0 8.84275,3.96663 8.84275,8.84237 0,4.8761 -3.966639,8.84273 -8.84275,8.84273 -4.87574,0 -8.84237,-3.96663 -8.84237,-8.84273 0,-4.87574 3.96663,-8.84237 8.84237,-8.84237"
       inkscape:connector-curvature="0" />
    <path
       id="path230"
       style="fill:#fec503;fill-opacity:1;fill-rule:nonzero;stroke:none;stroke-width:0.35277775"
       d="m 46.332577,255.16299 c -4.082679,0 -7.39246,3.30977 -7.39246,7.39246 0,4.08305 3.309781,7.39282 7.39246,7.39282 4.08305,0 7.392831,-3.30977 7.392831,-7.39282 0,-4.08269 -3.309781,-7.39246 -7.392831,-7.39246 m 0,2.97322 c 2.437,0 4.41926,1.98261 4.41926,4.41924 0,2.43699 -1.982259,4.41925 -4.41926,4.41925 -2.43663,0 -4.41888,-1.98226 -4.41888,-4.41925 0,-2.43663 1.98225,-4.41924 4.41888,-4.41924"
       inkscape:connector-curvature="0" />
    <path
       id="path234"
       style="fill:#fec503;fill-opacity:1;fill-rule:nonzero;stroke:none;stroke-width:0.35277775"
       d="m 7.5528675,262.55545 c -4.0830501,0 -7.3928101,3.30976 -7.3928101,7.39282 0,4.08269 3.30976,7.39246 7.3928101,7.39246 4.0827005,0 7.3924505,-3.30977 7.3924505,-7.39246 0,-4.08306 -3.30975,-7.39282 -7.3924505,-7.39282 m 0,2.97321 c 2.43665,0 4.4189105,1.98262 4.4189105,4.41961 0,2.43663 -1.9822605,4.41924 -4.4189105,4.41924 -2.43697,0 -4.4192301,-1.98261 -4.4192301,-4.41924 0,-2.43699 1.9822601,-4.41961 4.4192301,-4.41961"
       inkscape:connector-curvature="0" />
    <path
       id="path238"
       style="fill:#fec503;fill-opacity:1;fill-rule:nonzero;stroke:none;stroke-width:0.35277775"
       d="m 77.367698,265.85674 c -0.53832,-0.95849 -1.2474,-1.68733 -2.12688,-2.18616 -0.88019,-0.49847 -1.83197,-0.74859 -2.85609,-0.74859 -0.99873,0 -1.9371,0.25611 -2.81694,0.76799 -0.87982,0.51224 -1.58925,1.25448 -2.12725,2.22603 -0.53832,0.97155 -0.807861,2.1142 -0.807861,3.42724 0,1.31339 0.269541,2.45604 0.807861,3.42689 0.538,0.97225 1.247429,1.71414 2.12725,2.22602 0.87984,0.51224 1.81821,0.768 2.81694,0.768 1.02412,0 1.9759,-0.26211 2.85609,-0.7874 0.87948,-0.52493 1.58856,-1.27388 2.12688,-2.24614 0.538349,-0.97084 0.80788,-2.12654 0.80788,-3.46639 0,-1.31269 -0.269531,-2.44828 -0.80788,-3.40749 m -7.79991,-6.7952 c 1.24743,-0.65652 2.67229,-0.98496 4.2746,-0.98496 1.8641,0 3.55143,0.45967 5.06167,1.37866 1.51024,0.91969 2.70476,2.22568 3.58529,3.91971 0.87947,1.69404 1.31937,3.6576 1.31937,5.88928 0,2.23273 -0.4399,4.20899 -1.31937,5.92878 -0.88053,1.72085 -2.07505,3.05329 -3.58529,3.99839 -1.51024,0.94544 -3.19757,1.41816 -5.06167,1.41816 -1.62877,0 -3.05329,-0.32173 -4.2746,-0.9652 -1.22095,-0.64311 -2.19991,-1.47708 -2.93511,-2.50155 v 3.11256 h -5.51497 v -29.15179 h 5.51497 V 261.622 c 0.70943,-1.05022 1.6877,-1.90394 2.93511,-2.56046"
       inkscape:connector-curvature="0" />
    <path
       id="path242"
       style="fill:#fec503;fill-opacity:1;fill-rule:nonzero;stroke:none;stroke-width:0.35277775"
       d="m 100.33445,275.07511 c 0.87948,-0.48577 1.58187,-1.21426 2.10751,-2.18651 0.52528,-0.97155 0.78775,-2.153 0.78775,-3.54542 0,-2.07433 -0.54539,-3.66995 -1.63478,-4.78649 -1.09009,-1.11583 -2.422525,-1.67428 -3.998385,-1.67428 -1.5762,0 -2.8956,0.55845 -3.958847,1.67428 -1.064,1.11654 -1.59562,2.71216 -1.59562,4.78649 0,2.07504 0.51824,3.66995 1.55575,4.78649 1.037507,1.11654 2.344207,1.67393 3.920057,1.67393 0.99767,0 1.93641,-0.24236 2.816565,-0.72849 m -8.489572,4.13633 c -1.681,-0.93204 -3.00074,-2.25179 -3.95888,-3.95958 -0.95919,-1.70674 -1.43756,-3.6763 -1.43756,-5.90868 0,-2.23203 0.49213,-4.20159 1.47672,-5.90903 0.98496,-1.70709 2.33045,-3.02683 4.03826,-3.95922 1.70672,-0.93204 3.610316,-1.39841 5.712166,-1.39841 2.100791,0 4.004376,0.46637 5.711816,1.39841 1.70675,0.93239 3.05329,2.25213 4.03826,3.95922 0.98459,1.70744 1.47706,3.677 1.47706,5.90903 0,2.23238 -0.50588,4.20194 -1.51694,5.90868 -1.01105,1.70779 -2.37701,3.02754 -4.0968,3.95958 -1.72051,0.93239 -3.643846,1.39805 -5.771096,1.39805 -2.1015,0 -3.992367,-0.46566 -5.673007,-1.39805"
       inkscape:connector-curvature="0" />
    <path
       id="path246"
       style="fill:#fec503;fill-opacity:1;fill-rule:nonzero;stroke:none;stroke-width:0.35277775"
       d="m 131.3565,260.57781 c 1.60163,1.64183 2.40314,3.93348 2.40314,6.87424 v 12.80336 h -5.51532 v -12.05477 c 0,-1.73355 -0.43323,-3.06599 -1.30001,-3.99839 -0.86677,-0.93204 -2.04822,-1.39841 -3.54541,-1.39841 -1.52329,0 -2.72484,0.46637 -3.60432,1.39841 -0.88053,0.9324 -1.32011,2.26484 -1.32011,3.99839 v 12.05477 h -5.5146 v -21.82425 h 5.5146 v 2.71815 c 0.7352,-0.94579 1.67428,-1.68733 2.81694,-2.22602 1.14229,-0.53799 2.39641,-0.80751 3.76203,-0.80751 2.59996,0 4.70075,0.82127 6.30306,2.46203"
       inkscape:connector-curvature="0" />
    <path
       id="path250"
       style="fill:#fec503;fill-opacity:1;fill-rule:nonzero;stroke:none;stroke-width:0.35277775"
       d="m 142.54409,279.64454 c -1.41816,-0.64311 -2.54068,-1.51659 -3.36796,-2.61938 -0.82727,-1.10313 -1.28058,-2.3248 -1.3589,-3.66395 h 5.55448 c 0.10477,0.84103 0.5179,1.53635 1.24074,2.0881 0.72212,0.55139 1.62136,0.82726 2.69875,0.82726 1.04986,0 1.87076,-0.21026 2.46168,-0.63041 0.59089,-0.41946 0.88651,-0.9585 0.88651,-1.61502 0,-0.70944 -0.36158,-1.24107 -1.08302,-1.59561 -0.72284,-0.35419 -1.87147,-0.74189 -3.44733,-1.16205 -1.62843,-0.39406 -2.96122,-0.80081 -3.99838,-1.22097 -1.03754,-0.42016 -1.9304,-1.06397 -2.67902,-1.9304 -0.74858,-0.86677 -1.12252,-2.03518 -1.12252,-3.50626 0,-1.20756 0.34782,-2.31069 1.04386,-3.30905 0.69567,-0.99801 1.69405,-1.78577 2.99403,-2.36362 1.30035,-0.57749 2.82964,-0.86677 4.58927,-0.86677 2.60033,0 4.67466,0.65017 6.22406,1.95016 1.5494,1.29963 2.40348,3.05294 2.56083,5.25885 h -5.27897 c -0.0787,-0.86642 -0.43992,-1.55575 -1.08339,-2.06798 -0.64347,-0.51223 -1.50352,-0.76835 -2.57985,-0.76835 -0.99872,0 -1.76673,0.18415 -2.30505,0.55174 -0.53834,0.36795 -0.80716,0.88019 -0.80716,1.536 0,0.73589 0.36724,1.29399 1.10278,1.67428 0.73483,0.381 1.87783,0.76835 3.42723,1.16241 1.57623,0.39405 2.87586,0.80116 3.90033,1.22132 1.02409,0.42015 1.91029,1.07032 2.65888,1.9498 0.74858,0.87982 1.13593,2.04223 1.16276,3.4865 0,1.26047 -0.34925,2.39042 -1.04423,3.38772 -0.69673,0.99837 -1.69405,1.77977 -2.99437,2.34386 -1.3,0.56444 -2.8166,0.84702 -4.54977,0.84702 -1.78613,0 -3.38773,-0.32209 -4.80627,-0.9652"
       inkscape:connector-curvature="0" />
    <path
       id="path254"
       style="fill:#fec503;fill-opacity:1;fill-rule:nonzero;stroke:none;stroke-width:0.35277775"
       d="m 175.43889,265.89619 c -0.52562,-0.9585 -1.23507,-1.69404 -2.12759,-2.20592 -0.89323,-0.51224 -1.85137,-0.76835 -2.87584,-0.76835 -1.02412,0 -1.96956,0.25012 -2.83633,0.74859 -0.86643,0.49883 -1.56916,1.22767 -2.10751,2.18617 -0.53832,0.9592 -0.80714,2.09479 -0.80714,3.40748 0,1.31374 0.26882,2.46204 0.80714,3.44699 0.53835,0.9846 1.24708,1.74061 2.12762,2.26554 0.8791,0.52529 1.81821,0.78775 2.81622,0.78775 1.02447,0 1.98261,-0.25576 2.87584,-0.76835 0.89252,-0.51188 1.60197,-1.24671 2.12759,-2.20592 0.52459,-0.95849 0.7874,-2.10749 0.7874,-3.44699 0,-1.33949 -0.26281,-2.48779 -0.7874,-3.44699 m -15.06818,-2.50155 c 0.87911,-1.70709 2.07397,-3.01978 3.58458,-3.93947 1.51024,-0.91899 3.19685,-1.37865 5.06235,-1.37865 1.62806,0 3.05295,0.32878 4.27389,0.98495 1.22169,0.65652 2.19922,1.48414 2.93476,2.48144 v -3.11185 h 5.55519 v 21.82424 h -5.55519 v -3.19052 c -0.70837,1.02376 -1.68767,1.87078 -2.93476,2.54036 -1.2474,0.66992 -2.68533,1.00471 -4.31339,1.00471 -1.8387,0 -3.51261,-0.47273 -5.02285,-1.41817 -1.51061,-0.94544 -2.70547,-2.27789 -3.58458,-3.99874 -0.88053,-1.71979 -1.32011,-3.69605 -1.32011,-5.92878 0,-2.20592 0.43958,-4.16172 1.32011,-5.86952"
       inkscape:connector-curvature="0" />
    <path
       id="path256"
       style="fill:#fec503;fill-opacity:1;fill-rule:nonzero;stroke:none;stroke-width:0.35277775"
       d="m 192.69285,280.25516 h -5.51532 v -21.82425 h 5.51532 z m -5.14067,-25.34991 c -0.64347,-0.61665 -0.96486,-1.385 -0.96486,-2.30469 0,-0.91899 0.32139,-1.68698 0.96486,-2.3047 0.64347,-0.6163 1.4506,-0.92569 2.42287,-0.92569 0.97083,0 1.77871,0.30939 2.42252,0.92569 0.64347,0.61772 0.96555,1.38571 0.96555,2.3047 0,0.91969 -0.32208,1.68804 -0.96555,2.30469 -0.64381,0.61736 -1.45169,0.92569 -2.42252,0.92569 -0.97227,0 -1.7794,-0.30833 -2.42287,-0.92569"
       inkscape:connector-curvature="0" />
    <path
       id="path260"
       style="fill:#fec503;fill-opacity:1;fill-rule:nonzero;stroke:none;stroke-width:0.35277775"
       d="m 132.98912,290.32965 -1.54411,-4.41431 -1.55821,4.41431 z m 0.43709,1.2707 h -3.9765 l -0.68334,1.94064 h -1.62629 l 3.40288,-9.51125 h 1.80412 l 3.40254,9.51125 h -1.63973 z"
       inkscape:connector-curvature="0" />
    <path
       id="path264"
       style="fill:#fec503;fill-opacity:1;fill-rule:nonzero;stroke:none;stroke-width:0.35277775"
       d="m 137.17768,287.72636 c 0.3147,-0.58773 0.7493,-1.04069 1.30493,-1.3596 0.55562,-0.31856 1.19345,-0.47873 1.91312,-0.47873 0.91122,0 1.6651,0.21696 2.26166,0.64947 0.59724,0.43251 1.00012,1.04987 1.20967,1.85138 h -1.68097 c -0.13653,-0.37289 -0.35526,-0.66499 -0.65583,-0.87419 -0.30091,-0.2099 -0.6791,-0.31432 -1.13453,-0.31432 -0.63783,0 -1.14546,0.22542 -1.52329,0.67663 -0.37854,0.45049 -0.56763,1.08126 -0.56763,1.8923 0,0.81068 0.18909,1.44392 0.56763,1.89971 0.37783,0.45508 0.88546,0.68297 1.52329,0.68297 0.90204,0 1.49894,-0.39652 1.79036,-1.18886 h 1.68097 c -0.21836,0.76518 -0.62865,1.37336 -1.22978,1.82457 -0.60148,0.45085 -1.34866,0.67663 -2.24155,0.67663 -0.71967,0 -1.3575,-0.16158 -1.91312,-0.48543 -0.55563,-0.32314 -0.99023,-0.77893 -1.30493,-1.36666 -0.31432,-0.58737 -0.4713,-1.26859 -0.4713,-2.04293 0,-0.77435 0.15698,-1.45521 0.4713,-2.04294"
       inkscape:connector-curvature="0" />
    <path
       id="path268"
       style="fill:#fec503;fill-opacity:1;fill-rule:nonzero;stroke:none;stroke-width:0.35277775"
       d="m 150.74755,288.41643 c -0.21412,-0.38241 -0.49387,-0.67451 -0.84031,-0.87454 -0.34642,-0.20037 -0.72001,-0.30092 -1.12078,-0.30092 -0.40074,0 -0.77433,0.0981 -1.1204,0.29422 -0.34645,0.19579 -0.62691,0.48295 -0.84032,0.86007 -0.2145,0.37853 -0.32139,0.82762 -0.32139,1.34656 0,0.51928 0.10689,0.97507 0.32139,1.36666 0.21341,0.39193 0.49636,0.69003 0.84701,0.89464 0.35031,0.20532 0.72213,0.30762 1.11371,0.30762 0.40077,0 0.77436,-0.0998 1.12078,-0.30056 0.34644,-0.20003 0.62619,-0.49389 0.84031,-0.88124 0.21379,-0.38735 0.32105,-0.84067 0.32105,-1.35996 0,-0.51894 -0.10726,-0.97014 -0.32105,-1.35255 m -5.37067,-0.68333 c 0.31433,-0.58279 0.74258,-1.03646 1.28482,-1.35961 0.54149,-0.32314 1.14088,-0.48542 1.79705,-0.48542 0.59161,0 1.10876,0.11642 1.5508,0.3489 0.44167,0.23177 0.79481,0.5214 1.05905,0.86748 v -1.09291 h 1.57162 v 7.52934 h -1.57162 v -1.12078 c -0.26424,0.3556 -0.62373,0.65158 -1.07916,0.8883 -0.4558,0.23742 -0.97507,0.3556 -1.55821,0.3556 -0.64701,0 -1.23931,-0.16616 -1.77694,-0.49883 -0.53729,-0.33232 -0.96308,-0.79728 -1.27741,-1.39383 -0.31432,-0.59654 -0.47133,-1.27317 -0.47133,-2.02952 0,-0.75636 0.15701,-1.42558 0.47133,-2.00872"
       inkscape:connector-curvature="0" />
    <path
       id="path272"
       style="fill:#fec503;fill-opacity:1;fill-rule:nonzero;stroke:none;stroke-width:0.35277775"
       d="m 160.01281,288.41643 c -0.21378,-0.38241 -0.49424,-0.67451 -0.84066,-0.87454 -0.34573,-0.20037 -0.72001,-0.30092 -1.12043,-0.30092 -0.40111,0 -0.77433,0.0981 -1.12078,0.29422 -0.34641,0.19579 -0.62653,0.48295 -0.84031,0.86007 -0.21447,0.37853 -0.32102,0.82762 -0.32102,1.34656 0,0.51928 0.10655,0.97507 0.32102,1.36666 0.21378,0.39193 0.49601,0.69003 0.84738,0.89464 0.35031,0.20532 0.72178,0.30762 1.11371,0.30762 0.40042,0 0.7747,-0.0998 1.12043,-0.30056 0.34642,-0.20003 0.62688,-0.49389 0.84066,-0.88124 0.21378,-0.38735 0.32139,-0.84067 0.32139,-1.35996 0,-0.51894 -0.10761,-0.97014 -0.32139,-1.35255 m -5.37067,-0.68333 c 0.31432,-0.58279 0.74258,-1.03646 1.28445,-1.35961 0.54186,-0.32314 1.14548,-0.48542 1.8108,-0.48542 0.49144,0 0.97722,0.1076 1.45558,0.32173 0.47766,0.21379 0.85866,0.49848 1.14123,0.85373 v -3.63503 h 1.57128 v 10.11238 h -1.57128 v -1.13418 c -0.2554,0.36442 -0.60854,0.66498 -1.05939,0.9017 -0.45085,0.23742 -0.96838,0.3556 -1.5508,0.3556 -0.65654,0 -1.25556,-0.16616 -1.79742,-0.49883 -0.54187,-0.33232 -0.97013,-0.79728 -1.28445,-1.39383 -0.31433,-0.59654 -0.47167,-1.27317 -0.47167,-2.02952 0,-0.75636 0.15734,-1.42558 0.47167,-2.00872"
       inkscape:connector-curvature="0" />
    <path
       id="path276"
       style="fill:#fec503;fill-opacity:1;fill-rule:nonzero;stroke:none;stroke-width:0.35277775"
       d="m 169.2305,289.09941 c -0.009,-0.57362 -0.21447,-1.03364 -0.61524,-1.38007 -0.40111,-0.34607 -0.89746,-0.51894 -1.48942,-0.51894 -0.53763,0 -0.99732,0.17075 -1.38043,0.51189 -0.38275,0.34184 -0.61029,0.80398 -0.68297,1.38712 z m 1.57128,1.2573 h -5.7531 c 0.0455,0.60148 0.26882,1.08444 0.66921,1.44886 0.40148,0.36477 0.89289,0.54645 1.47637,0.54645 0.8382,0 1.42981,-0.35031 1.77626,-1.05234 h 1.68132 c -0.22789,0.69251 -0.64064,1.26012 -1.23719,1.7011 -0.59653,0.44238 -1.33702,0.66322 -2.22039,0.66322 -0.71966,0 -1.36488,-0.16157 -1.93391,-0.48542 -0.56973,-0.32315 -1.016,-0.77894 -1.33951,-1.36666 -0.32314,-0.58703 -0.48472,-1.26824 -0.48472,-2.04294 0,-0.77399 0.15735,-1.45486 0.47133,-2.04258 0.31433,-0.58773 0.756,-1.0407 1.32572,-1.35996 0.56904,-0.31821 1.22309,-0.47837 1.96109,-0.47837 0.71052,0 1.34374,0.15522 1.89937,0.46461 0.55562,0.30974 0.98848,0.74542 1.29823,1.30528 0.31009,0.56021 0.46461,1.20509 0.46461,1.93357 0,0.28222 -0.018,0.53728 -0.0547,0.76518"
       inkscape:connector-curvature="0" />
    <path
       id="path280"
       style="fill:#fec503;fill-opacity:1;fill-rule:nonzero;stroke:none;stroke-width:0.35277775"
       d="m 183.09424,286.25722 c 0.46921,0.24588 0.8382,0.6103 1.10702,1.0929 0.26847,0.48331 0.40253,1.06645 0.40253,1.74943 v 4.44147 h -1.5441 v -4.20899 c 0,-0.67451 -0.16828,-1.19133 -0.50554,-1.55117 -0.3369,-0.35983 -0.79693,-0.53975 -1.38007,-0.53975 -0.58314,0 -1.04529,0.17992 -1.38713,0.53975 -0.34184,0.35984 -0.51186,0.87666 -0.51186,1.55117 v 4.20899 h -1.54483 v -4.20899 c 0,-0.67451 -0.16862,-1.19133 -0.50517,-1.55117 -0.33726,-0.35983 -0.79763,-0.53975 -1.38078,-0.53975 -0.58314,0 -1.04529,0.17992 -1.38676,0.53975 -0.34149,0.35984 -0.5126,0.87666 -0.5126,1.55117 v 4.20899 h -1.55787 v -7.52969 h 1.55787 v 0.86113 c 0.25471,-0.31009 0.57856,-0.55104 0.97015,-0.7246 0.39158,-0.17322 0.81102,-0.25965 1.25764,-0.25965 0.60113,0 1.13808,0.12771 1.61221,0.38241 0.47377,0.25541 0.8382,0.62442 1.09361,1.10737 0.22682,-0.45579 0.58279,-0.81774 1.06574,-1.0862 0.4826,-0.26882 1.00189,-0.40358 1.55752,-0.40358 0.59267,0 1.12324,0.12312 1.59242,0.36901"
       inkscape:connector-curvature="0" />
    <path
       id="path284"
       style="fill:#fec503;fill-opacity:1;fill-rule:nonzero;stroke:none;stroke-width:0.35277775"
       d="m 193.36375,286.0114 -4.61962,11.06876 h -1.61253 l 1.53069,-3.66254 -2.9651,-7.40622 h 1.73532 l 2.11807,5.7397 2.20064,-5.7397 z"
       inkscape:connector-curvature="0" />
  </g>
</svg>
