<?xml version="1.0" encoding="UTF-8" standalone="no"?>
<svg
   xmlns:dc="http://purl.org/dc/elements/1.1/"
   xmlns:cc="http://creativecommons.org/ns#"
   xmlns:rdf="http://www.w3.org/1999/02/22-rdf-syntax-ns#"
   xmlns:svg="http://www.w3.org/2000/svg"
   xmlns="http://www.w3.org/2000/svg"
   xmlns:sodipodi="http://sodipodi.sourceforge.net/DTD/sodipodi-0.dtd"
   xmlns:inkscape="http://www.inkscape.org/namespaces/inkscape"
   width="24px"
   height="24px"
   viewBox="0 0 24 24"
   version="1.1"
   id="svg9"
   sodipodi:docname="person-feedback-svgrepo-com.svg"
   inkscape:version="0.92.5 (2060ec1f9f, 2020-04-08)">
  <metadata
     id="metadata15">
    <rdf:RDF>
      <cc:Work
         rdf:about="">
        <dc:format>image/svg+xml</dc:format>
        <dc:type
           rdf:resource="http://purl.org/dc/dcmitype/StillImage" />
      </cc:Work>
    </rdf:RDF>
  </metadata>
  <defs
     id="defs13" />
  <sodipodi:namedview
     pagecolor="#ffffff"
     bordercolor="#666666"
     borderopacity="1"
     objecttolerance="10"
     gridtolerance="10"
     guidetolerance="10"
     inkscape:pageopacity="0"
     inkscape:pageshadow="2"
     inkscape:window-width="1366"
     inkscape:window-height="703"
     id="namedview11"
     showgrid="false"
     inkscape:zoom="9.8333333"
     inkscape:cx="-23.949153"
     inkscape:cy="12"
     inkscape:window-x="0"
     inkscape:window-y="0"
     inkscape:window-maximized="1"
     inkscape:current-layer="svg9" />
  <title
     id="title2">ic_fluent_person_feedback_24_filled</title>
  <desc
     id="desc4">Created with Sketch.</desc>
  <g
     id="ðŸ”-Product-Icons"
     stroke="none"
     stroke-width="1"
     fill="none"
     fill-rule="evenodd"
     style="fill:#fec503;fill-opacity:1">
    <g
       id="ic_fluent_person_feedback_24_filled"
       fill="#212121"
       fill-rule="nonzero"
       style="fill:#fec503;fill-opacity:1">
      <path
         d="M10.75,14 C11.9926407,14 13,15.0073593 13,16.25 L13,17.7519766 L12.9921156,17.8604403 C12.6813607,19.9866441 10.7715225,21.0090369 7.5667905,21.0090369 C4.37361228,21.0090369 2.43330141,19.9983408 2.01446278,17.8965776 L2,17.75 L2,16.25 C2,15.0073593 3.00735931,14 4.25,14 L10.75,14 Z M7.5,6 C9.43299662,6 11,7.56700338 11,9.5 C11,11.4329966 9.43299662,13 7.5,13 C5.56700338,13 4,11.4329966 4,9.5 C4,7.56700338 5.56700338,6 7.5,6 Z M19.75,2 C20.9926407,2 22,3.00735931 22,4.25 L22,7.75 C22,8.99264069 20.9926407,10 19.75,10 L18.197189,10 L15.6555465,12.2070729 C15.2384861,12.5691213 14.6068936,12.5245251 14.2448452,12.1074647 C14.0869422,11.9255688 14,11.6927904 14,11.4522588 L13.9993343,9.98619411 C12.8746672,9.86153043 12,8.90790995 12,7.75 L12,4.25 C12,3.00735931 13.0073593,2 14.25,2 L19.75,2 Z"
         id="ðŸŽ¨-Color"
         style="fill:#fec503;fill-opacity:1" />
    </g>
  </g>
</svg>
