<?xml version="1.0" encoding="UTF-8" standalone="no"?>
<svg
   xmlns:dc="http://purl.org/dc/elements/1.1/"
   xmlns:cc="http://creativecommons.org/ns#"
   xmlns:rdf="http://www.w3.org/1999/02/22-rdf-syntax-ns#"
   xmlns:svg="http://www.w3.org/2000/svg"
   xmlns="http://www.w3.org/2000/svg"
   xmlns:sodipodi="http://sodipodi.sourceforge.net/DTD/sodipodi-0.dtd"
   xmlns:inkscape="http://www.inkscape.org/namespaces/inkscape"
   version="1.1"
   viewBox="0 0 231.087 231.087"
   enable-background="new 0 0 231.087 231.087"
   id="svg18"
   sodipodi:docname="task-svgrepo-com.svg"
   inkscape:version="0.92.5 (2060ec1f9f, 2020-04-08)">
  <metadata
     id="metadata24">
    <rdf:RDF>
      <cc:Work
         rdf:about="">
        <dc:format>image/svg+xml</dc:format>
        <dc:type
           rdf:resource="http://purl.org/dc/dcmitype/StillImage" />
      </cc:Work>
    </rdf:RDF>
  </metadata>
  <defs
     id="defs22" />
  <sodipodi:namedview
     pagecolor="#ffffff"
     bordercolor="#666666"
     borderopacity="1"
     objecttolerance="10"
     gridtolerance="10"
     guidetolerance="10"
     inkscape:pageopacity="0"
     inkscape:pageshadow="2"
     inkscape:window-width="1366"
     inkscape:window-height="704"
     id="namedview20"
     showgrid="false"
     inkscape:zoom="1.0212604"
     inkscape:cx="-56.302977"
     inkscape:cy="115.5435"
     inkscape:window-x="1920"
     inkscape:window-y="0"
     inkscape:window-maximized="1"
     inkscape:current-layer="svg18" />
  <g
     id="g16"
     style="fill:#e37332;fill-opacity:1">
    <path
       d="m230.042,142.627c-1.871-2.744-5.612-3.452-8.355-1.581l-65.513,44.667-14.55-19.473c-1.526-2.036-4.241-2.977-6.788-2.129-3.185,1.06-4.908,4.501-3.848,7.686l11.908,35.785c0.45,1.33 1.184,2.645 2.18,3.757 3.94,4.401 10.702,4.776 15.104,0.836l.777-.695 68.129-60.985c2.216-1.981 2.676-5.346 0.956-7.868z"
       id="path2"
       style="fill:#e37332;fill-opacity:1" />
    <path
       d="m120.211,190.676h-108.211v-162.49h158.43v124.823c0,3.313 2.687,6 6,6s6-2.687 6-6v-130.823c0-3.313-2.687-6-6-6h-170.43c-3.313,0-6,2.687-6,6v174.49c0,3.313 2.687,6 6,6h114.211c3.313,0 6-2.687 6-6 0-3.314-2.687-6-6-6z"
       id="path4"
       style="fill:#e37332;fill-opacity:1" />
    <path
       d="m139.694,53.855h-96.959c-3.313,0-6,2.687-6,6s2.687,6 6,6h96.959c3.313,0 6-2.687 6-6s-2.686-6-6-6z"
       id="path6"
       style="fill:#e37332;fill-opacity:1" />
    <path
       d="m139.694,79.79h-96.959c-3.313,0-6,2.687-6,6s2.687,6 6,6h96.959c3.313,0 6-2.687 6-6s-2.686-6-6-6z"
       id="path8"
       style="fill:#e37332;fill-opacity:1" />
    <path
       d="m139.694,105.725h-96.959c-3.313,0-6,2.687-6,6s2.687,6 6,6h96.959c3.313,0 6-2.687 6-6s-2.686-6-6-6z"
       id="path10"
       style="fill:#e37332;fill-opacity:1" />
    <path
       d="m145.694,137.659c0-3.313-2.687-6-6-6h-96.959c-3.313,0-6,2.687-6,6s2.687,6 6,6h96.959c3.314,0 6-2.686 6-6z"
       id="path12"
       style="fill:#e37332;fill-opacity:1" />
    <path
       d="M42.735,156.329c-3.313,0-6,2.687-6,6s2.687,6,6,6h48.479c3.313,0,6-2.687,6-6s-2.687-6-6-6H42.735z"
       id="path14"
       style="fill:#e37332;fill-opacity:1" />
  </g>
</svg>
