<?xml version="1.0" encoding="UTF-8" standalone="no"?>
<!-- Generator: Adobe Illustrator 19.0.0, SVG Export Plug-In . SVG Version: 6.00 Build 0)  -->

<svg
   xmlns:dc="http://purl.org/dc/elements/1.1/"
   xmlns:cc="http://creativecommons.org/ns#"
   xmlns:rdf="http://www.w3.org/1999/02/22-rdf-syntax-ns#"
   xmlns:svg="http://www.w3.org/2000/svg"
   xmlns="http://www.w3.org/2000/svg"
   xmlns:sodipodi="http://sodipodi.sourceforge.net/DTD/sodipodi-0.dtd"
   xmlns:inkscape="http://www.inkscape.org/namespaces/inkscape"
   version="1.1"
   id="Capa_1"
   x="0px"
   y="0px"
   viewBox="0 0 490 490"
   style="enable-background:new 0 0 490 490;"
   xml:space="preserve"
   sodipodi:docname="up-arrow-svgrepo-com.svg"
   inkscape:version="0.92.5 (2060ec1f9f, 2020-04-08)"><metadata
   id="metadata41"><rdf:RDF><cc:Work
       rdf:about=""><dc:format>image/svg+xml</dc:format><dc:type
         rdf:resource="http://purl.org/dc/dcmitype/StillImage" /></cc:Work></rdf:RDF></metadata><defs
   id="defs39" /><sodipodi:namedview
   pagecolor="#ffffff"
   bordercolor="#666666"
   borderopacity="1"
   objecttolerance="10"
   gridtolerance="10"
   guidetolerance="10"
   inkscape:pageopacity="0"
   inkscape:pageshadow="2"
   inkscape:window-width="1366"
   inkscape:window-height="703"
   id="namedview37"
   showgrid="false"
   inkscape:zoom="0.48163265"
   inkscape:cx="324.93644"
   inkscape:cy="245"
   inkscape:window-x="0"
   inkscape:window-y="0"
   inkscape:window-maximized="1"
   inkscape:current-layer="Capa_1" />
<g
   id="g4"
   transform="rotate(90,245,245)"
   style="fill:#8257e6;fill-opacity:1">
	<path
   d="m 437.2,178.7 c 12.8,12.8 12.8,33.4 0,46.2 -6.4,6.4 -14.7,9.6 -23.1,9.6 -8.4,0 -16.7,-3.2 -23.1,-9.6 L 277.7,111.5 v 345.8 c 0,18 -14.6,32.7 -32.7,32.7 -18.1,0 -32.7,-14.6 -32.7,-32.7 V 111.5 L 99,224.9 c -12.8,12.8 -33.4,12.8 -46.2,0 C 40,212.1 40,191.5 52.8,178.7 L 221.9,9.6 C 228,3.4 236.3,0 245,0 c 8.7,0 17,3.4 23.1,9.6 z"
   id="path2"
   inkscape:connector-curvature="0"
   style="fill:#8257e6;fill-opacity:1" />
</g>
<g
   id="g6"
   transform="rotate(90,0,490)">
</g>
<g
   id="g8"
   transform="rotate(90,0,490)">
</g>
<g
   id="g10"
   transform="rotate(90,0,490)">
</g>
<g
   id="g12"
   transform="rotate(90,0,490)">
</g>
<g
   id="g14"
   transform="rotate(90,0,490)">
</g>
<g
   id="g16"
   transform="rotate(90,0,490)">
</g>
<g
   id="g18"
   transform="rotate(90,0,490)">
</g>
<g
   id="g20"
   transform="rotate(90,0,490)">
</g>
<g
   id="g22"
   transform="rotate(90,0,490)">
</g>
<g
   id="g24"
   transform="rotate(90,0,490)">
</g>
<g
   id="g26"
   transform="rotate(90,0,490)">
</g>
<g
   id="g28"
   transform="rotate(90,0,490)">
</g>
<g
   id="g30"
   transform="rotate(90,0,490)">
</g>
<g
   id="g32"
   transform="rotate(90,0,490)">
</g>
<g
   id="g34"
   transform="rotate(90,0,490)">
</g>
</svg>