<?xml version="1.0" encoding="UTF-8" standalone="no"?>
<svg
   xmlns:dc="http://purl.org/dc/elements/1.1/"
   xmlns:cc="http://creativecommons.org/ns#"
   xmlns:rdf="http://www.w3.org/1999/02/22-rdf-syntax-ns#"
   xmlns:svg="http://www.w3.org/2000/svg"
   xmlns="http://www.w3.org/2000/svg"
   xmlns:sodipodi="http://sodipodi.sourceforge.net/DTD/sodipodi-0.dtd"
   xmlns:inkscape="http://www.inkscape.org/namespaces/inkscape"
   id="a5f41e37-d8d4-4d60-9e97-29ee7ebe1bc1"
   data-name="Layer 1"
   width="845.7243"
   height="704.03133"
   viewBox="0 0 845.7243 704.03133"
   version="1.1"
   sodipodi:docname="web-tecnologies.svg"
   inkscape:version="0.92.5 (2060ec1f9f, 2020-04-08)">
  <metadata
     id="metadata38">
    <rdf:RDF>
      <cc:Work
         rdf:about="">
        <dc:format>image/svg+xml</dc:format>
        <dc:type
           rdf:resource="http://purl.org/dc/dcmitype/StillImage" />
        <dc:title></dc:title>
      </cc:Work>
    </rdf:RDF>
  </metadata>
  <defs
     id="defs36" />
  <sodipodi:namedview
     pagecolor="#ffffff"
     bordercolor="#666666"
     borderopacity="1"
     objecttolerance="10"
     gridtolerance="10"
     guidetolerance="10"
     inkscape:pageopacity="0"
     inkscape:pageshadow="2"
     inkscape:window-width="1366"
     inkscape:window-height="703"
     id="namedview34"
     showgrid="false"
     inkscape:zoom="0.33521236"
     inkscape:cx="422.86215"
     inkscape:cy="352.01566"
     inkscape:window-x="0"
     inkscape:window-y="0"
     inkscape:window-maximized="1"
     inkscape:current-layer="a5f41e37-d8d4-4d60-9e97-29ee7ebe1bc1" />
  <g
     id="g969"
     transform="matrix(0.69832389,0,0,0.69832389,488.23161,137.28346)"
     style="stroke-width:1.90933371">
    <g
       id="#000000ff"
       style="stroke-width:1.90933371">
      <path
         id="path924"
         d="m 68.37,0.96 c 21,-0.26 42,-0.08 63,-0.09 0.05,6.57 0.15,13.14 -0.09,19.71 -14.55,-0.1 -29.09,0 -43.63,0.09 -0.1,9.54 -0.29,19.08 -0.2,28.62 14.6,0.09 29.21,0.23 43.81,0.17 0.17,5.4 0.11,10.82 -0.05,16.23 C 110.27,65.55 89.33,65.61 68.39,65.63 68.44,44.07 68.48,22.52 68.37,0.96 Z"
         inkscape:connector-curvature="0"
         style="opacity:1;fill:#000000;stroke-width:1.90933371" />
      <path
         id="path926"
         d="m 138.86,0.89 c 21.26,-0.04 42.52,-0.17 63.79,0.07 -0.08,6.21 -0.02,12.41 -0.02,18.62 -15.47,-0.05 -30.95,0.02 -46.42,0.2 0.02,2.44 0.02,4.88 0,7.32 15.45,0.25 30.89,0.28 46.33,0.37 0.06,12.73 0.03,25.45 0.11,38.17 -21.27,-0.04 -42.54,-0.02 -63.81,0.08 -0.11,-5.14 -0.12,-10.27 0.03,-15.41 14.74,0.04 29.49,0.06 44.23,-0.06 0.09,-3.31 0.13,-6.63 0.12,-9.94 -14.81,0 -29.63,0.05 -44.44,-0.05 0,-13.12 0,-26.25 0.08,-39.37 z"
         inkscape:connector-curvature="0"
         style="opacity:1;fill:#000000;stroke-width:1.90933371" />
      <path
         id="path928"
         d="m 209.77,1 c 21.22,0 42.45,0 63.67,0 0.09,6.24 0.18,12.48 -0.02,18.71 -15.54,-0.01 -31.08,0.08 -46.62,0.11 0.04,2.55 0.1,5.1 0.23,7.65 15.45,-0.07 30.9,0.12 46.34,0.28 0.14,12.67 0.24,25.34 0.06,38.01 -21.27,-0.06 -42.54,-0.06 -63.81,0.04 -0.13,-5.12 -0.17,-10.26 0.05,-15.38 14.71,0.11 29.43,0.09 44.15,-0.05 0.04,-3.32 0.11,-6.64 0.08,-9.95 -14.77,0.14 -29.55,0.06 -44.33,0.01 0,-13.14 0.1,-26.29 0.2,-39.43 z"
         inkscape:connector-curvature="0"
         style="opacity:1;fill:#000000;stroke-width:1.90933371" />
    </g>
    <g
       id="#0170baff"
       style="stroke-width:1.90933371">
      <path
         id="path931"
         d="m 0,92.46 c 113.92,-0.01 227.83,-0.02 341.75,0 -6.27,70.85 -12.44,141.7 -18.97,212.53 -3.88,45.27 -7.88,90.54 -12.1,135.78 -24.31,6.44 -48.38,13.78 -72.68,20.25 -22.32,6.55 -44.82,12.48 -67.15,18.98 h -0.66 C 148.94,473.68 127.48,468.12 106.23,461.8 81.15,455.04 56.29,447.5 31.2,440.77 27.93,406.86 24.98,372.93 22.07,339 16.58,276.31 10.61,213.66 5.33,150.96 3.5,132.09 2.19,113.16 0,94.33 v -1.87 m 171.41,27.95 c -0.24,13.61 0.18,27.23 -0.24,40.83 -39.08,-0.14 -78.17,-0.03 -117.25,0.01 0.67,13.21 2.44,26.33 4.26,39.43 36.36,1.35 72.77,-0.05 109.13,1.04 -31.81,14.27 -64.01,27.71 -95.96,41.68 -2.74,1.22 -5.67,2.14 -8.12,3.92 0.27,14.51 2.61,28.94 3.64,43.42 19.38,-0.07 38.75,-0.38 58.13,-0.41 15.53,-0.08 31.07,0.23 46.6,-0.11 -0.74,23.86 0.23,47.75 -0.5,71.61 -10.45,-1.55 -20.77,-3.88 -31.18,-5.73 -8.21,-1.79 -16.62,-2.72 -24.71,-5.07 -1.15,-11.45 -1.95,-22.94 -2.97,-34.4 -2.34,-0.72 -4.82,-0.65 -7.24,-0.69 -11.74,0.07 -23.49,-0.04 -35.24,0.14 1.15,22.03 3.13,44.03 6.5,65.85 11.58,3.02 23.18,5.98 34.74,9.13 17.71,4.82 35.64,8.83 53.38,13.57 2.11,0.45 4.24,1.23 6.43,1.05 1.18,14.49 0.27,29.07 0.49,43.6 4.09,-0.66 8.11,-1.67 12.06,-2.89 33.58,-9.12 67.12,-18.41 100.68,-27.62 1.67,-13.2 2.45,-26.49 3.77,-39.72 3.49,-40.22 7.01,-80.44 10.67,-120.65 4.29,-46 8,-92.05 12.32,-138.05 -46.47,0.04 -92.93,-0.09 -139.39,0.06 z"
         inkscape:connector-curvature="0"
         style="opacity:1;fill:#0170ba;stroke-width:1.90933371" />
    </g>
    <g
       id="#29a9dfff"
       style="stroke-width:1.90933371">
      <path
         id="path934"
         d="m 171.41,120.41 c 46.46,-0.15 92.92,-0.02 139.39,-0.06 -4.32,46 -8.03,92.05 -12.32,138.05 -3.66,40.21 -7.18,80.43 -10.67,120.65 -1.32,13.23 -2.1,26.52 -3.77,39.72 -33.56,9.21 -67.1,18.5 -100.68,27.62 -3.95,1.22 -7.97,2.23 -12.06,2.89 -0.22,-14.53 0.69,-29.11 -0.49,-43.6 0.3,-0.06 0.91,-0.18 1.21,-0.24 31.23,-7.84 62.25,-16.47 93.41,-24.59 3.94,-44.2 8.31,-88.38 11.08,-132.67 -26.5,0.14 -53.01,0.06 -79.51,0.17 -3.86,0.02 -7.72,0 -11.56,-0.28 14.26,-7.34 29.26,-13.16 43.9,-19.71 14.05,-6.37 28.27,-12.34 42.37,-18.59 2.72,-1.25 5.62,-2.29 8.01,-4.15 0.94,-3.45 0.89,-7.06 1.26,-10.59 0.81,-11.2 2.25,-22.34 2.79,-33.55 -37.53,-0.3 -75.06,-0.04 -112.6,-0.24 0.42,-13.6 0,-27.22 0.24,-40.83 z"
         inkscape:connector-curvature="0"
         style="opacity:1;fill:#29a9df;stroke-width:1.90933371" />
      <path
         id="path936"
         d="m 171.6,290.22 c 18.12,-0.31 36.25,0.18 54.38,0.06 -1.01,18.53 -2.55,37.03 -3.51,55.56 -11.11,3.63 -22.39,6.7 -33.59,10.06 -5.97,1.82 -12.1,3.26 -17.78,5.93 0.73,-23.86 -0.24,-47.75 0.5,-71.61 z"
         inkscape:connector-curvature="0"
         style="opacity:1;fill:#29a9df;stroke-width:1.90933371" />
    </g>
    <g
       id="#cfcfcfff"
       style="stroke-width:1.90933371">
      <path
         id="path939"
         d="m 53.92,161.25 c 39.08,-0.04 78.17,-0.15 117.25,-0.01 0.51,43 -0.13,86 0.43,128.98 -15.53,0.34 -31.07,0.03 -46.6,0.11 -19.38,0.03 -38.75,0.34 -58.13,0.41 -1.03,-14.48 -3.37,-28.91 -3.64,-43.42 2.45,-1.78 5.38,-2.7 8.12,-3.92 31.95,-13.97 64.15,-27.41 95.96,-41.68 -36.36,-1.09 -72.77,0.31 -109.13,-1.04 -1.82,-13.1 -3.59,-26.22 -4.26,-39.43 z"
         inkscape:connector-curvature="0"
         style="opacity:1;fill:#cfcfcf;stroke-width:1.90933371" />
      <path
         id="path941"
         d="m 69.76,316.08 c 11.75,-0.18 23.5,-0.07 35.24,-0.14 2.42,0.04 4.9,-0.03 7.24,0.69 1.02,11.46 1.82,22.95 2.97,34.4 8.09,2.35 16.5,3.28 24.71,5.07 10.41,1.85 20.73,4.18 31.18,5.73 1,14.52 -0.75,29.14 0.92,43.61 -0.3,0.06 -0.91,0.18 -1.21,0.24 -2.19,0.18 -4.32,-0.6 -6.43,-1.05 -17.74,-4.74 -35.67,-8.75 -53.38,-13.57 -11.56,-3.15 -23.16,-6.11 -34.74,-9.13 -3.37,-21.82 -5.35,-43.82 -6.5,-65.85 z"
         inkscape:connector-curvature="0"
         style="opacity:1;fill:#cfcfcf;stroke-width:1.90933371" />
    </g>
    <g
       id="#ffffffff"
       style="stroke-width:1.90933371">
      <path
         id="path944"
         d="m 171.17,161.24 c 37.54,0.2 75.07,-0.06 112.6,0.24 -0.54,11.21 -1.98,22.35 -2.79,33.55 -0.37,3.53 -0.32,7.14 -1.26,10.59 -2.39,1.86 -5.29,2.9 -8.01,4.15 -14.1,6.25 -28.32,12.22 -42.37,18.59 -14.64,6.55 -29.64,12.37 -43.9,19.71 3.84,0.28 7.7,0.3 11.56,0.28 26.5,-0.11 53.01,-0.03 79.51,-0.17 -2.77,44.29 -7.14,88.47 -11.08,132.67 -31.16,8.12 -62.18,16.75 -93.41,24.59 -1.67,-14.47 0.08,-29.09 -0.92,-43.61 5.68,-2.67 11.81,-4.11 17.78,-5.93 11.2,-3.36 22.48,-6.43 33.59,-10.06 0.96,-18.53 2.5,-37.03 3.51,-55.56 -18.13,0.12 -36.26,-0.37 -54.38,-0.06 -0.56,-42.98 0.08,-85.98 -0.43,-128.98 z"
         inkscape:connector-curvature="0"
         style="opacity:1;fill:#ffffff;stroke-width:1.90933371" />
    </g>
  </g>
  <g
     id="g996"
     transform="matrix(0.67954083,0,0,0.67954083,49.756811,21.364919)"
     style="stroke-width:1.47158194">
    <path
       id="path973"
       d="m 108.4,0 h 23 v 22.8 h 21.2 V 0 h 23 v 69 h -23 V 46 h -21 V 69 H 108.4 M 206,23 H 185.7 V 0 h 63.7 V 23 H 229 V 69 H 206 M 259.5,0 h 24.1 L 298.4,24.3 313.2,0 h 24.1 v 69 h -23 V 34.8 L 298.2,59.6 282.1,34.8 V 69 H 259.5 M 348.7,0 h 23 v 46.2 h 32.6 V 69 h -55.6"
       inkscape:connector-curvature="0"
       style="stroke-width:1.47158194" />
    <path
       id="path975"
       d="M 107.6,471 74.6,100.6 H 437.4 L 404.4,470.8 255.7,512"
       inkscape:connector-curvature="0"
       style="fill:#e44d26;stroke-width:1.47158194" />
    <path
       id="path977"
       d="M 256,480.5 V 131 H 404.3 L 376,447"
       inkscape:connector-curvature="0"
       style="fill:#f16529;stroke-width:1.47158194" />
    <path
       id="path979"
       d="m 142,176.3 h 114 v 45.4 h -64.2 l 4.2,46.5 h 60 v 45.3 H 154.4 m 2,22.8 H 202 l 3.2,36.3 50.8,13.6 v 47.4 l -93.2,-26"
       inkscape:connector-curvature="0"
       style="fill:#ebebeb;stroke-width:1.47158194" />
    <path
       id="path981"
       d="M 369.6,176.3 H 255.8 v 45.4 h 109.6 m -4.1,46.5 H 255.8 v 45.4 h 56 l -5.3,59 -50.7,13.6 v 47.2 l 93,-25.8"
       inkscape:connector-curvature="0"
       style="fill:#ffffff;stroke-width:1.47158194" />
  </g>
  <g
     id="g1012"
     transform="matrix(0.39862808,0,0,0.39862808,168.37663,428.69497)"
     style="stroke-width:2.50860381">
    <rect
       id="rect998"
       height="630"
       width="630"
       x="0"
       y="0"
       style="fill:#f7df1e;stroke-width:2.50860381" />
    <path
       id="path1000"
       d="m 423.2,492.19 c 12.69,20.72 29.2,35.95 58.4,35.95 24.53,0 40.2,-12.26 40.2,-29.2 0,-20.3 -16.1,-27.49 -43.1,-39.3 l -14.8,-6.35 c -42.72,-18.2 -71.1,-41 -71.1,-89.2 0,-44.4 33.83,-78.2 86.7,-78.2 37.64,0 64.7,13.1 84.2,47.4 l -46.1,29.6 c -10.15,-18.2 -21.1,-25.37 -38.1,-25.37 -17.34,0 -28.33,11 -28.33,25.37 0,17.76 11,24.95 36.4,35.95 l 14.8,6.34 c 50.3,21.57 78.7,43.56 78.7,93 0,53.3 -41.87,82.5 -98.1,82.5 -54.98,0 -90.5,-26.2 -107.88,-60.54 z m -209.13,5.13 c 9.3,16.5 17.76,30.45 38.1,30.45 19.45,0 31.72,-7.61 31.72,-37.2 v -201.3 h 59.2 v 202.1 c 0,61.3 -35.94,89.2 -88.4,89.2 -47.4,0 -74.85,-24.53 -88.81,-54.075 z"
       inkscape:connector-curvature="0"
       style="stroke-width:2.50860381" />
  </g>
</svg>
